<?xml version="1.0" standalone="no"?><!DOCTYPE svg PUBLIC "-//W3C//DTD SVG 1.1//EN" "http://www.w3.org/Graphics/SVG/1.1/DTD/svg11.dtd"><svg class="icon" width="200px" height="200.00px" viewBox="0 0 1024 1024" version="1.1" xmlns="http://www.w3.org/2000/svg"><path fill="#515151" d="M224 588.8 640 179.2l179.2 179.2L403.2 768 224 588.8zM659.2 275.2 640 256 307.2 588.8l19.2 19.2L659.2 275.2zM697.6 313.6l-19.2-19.2L345.6 627.2l19.2 19.2L697.6 313.6zM736 352l-19.2-19.2L384 665.6l19.2 19.2L736 352zM716.8 96c19.2-19.2 57.6-19.2 76.8 0L896 198.4c19.2 19.2 19.2 57.6 0 76.8L832 332.8l-172.8-172.8L716.8 96zM211.2 614.4l166.4 166.4L230.4 832l-70.4-70.4L211.2 614.4zM204.8 844.8l-83.2 32 32-83.2L204.8 844.8z"  /></svg>