<?xml version="1.0" standalone="no"?><!DOCTYPE svg PUBLIC "-//W3C//DTD SVG 1.1//EN" "http://www.w3.org/Graphics/SVG/1.1/DTD/svg11.dtd"><svg width="200" height="200" viewBox="0 0 200 200" version="1.1" xmlns="http://www.w3.org/2000/svg" xmlns:xlink="http://www.w3.org/1999/xlink"><defs><style type="text/css"><![CDATA[
@font-face { font-family: ifont; src: url("//at.alicdn.com/t/font_1442373896_4754455.eot?#iefix") format("embedded-opentype"), url("//at.alicdn.com/t/font_1442373896_4754455.woff") format("woff"), url("//at.alicdn.com/t/font_1442373896_4754455.ttf") format("truetype"), url("//at.alicdn.com/t/font_1442373896_4754455.svg#ifont") format("svg"); }

]]></style></defs><g class="transform-group"><g transform="scale(0.1953125, 0.1953125)"><path d="M772.181333 85.333333l-60.330667 0L85.333333 85.333333l0 853.333333 853.333333 0L938.666667 312.234667 938.666667 251.904 772.181333 85.333333zM341.333333 128l341.333333 0 0 256L341.333333 384 341.333333 128zM896 896 128 896 128 128l170.666667 0 0 298.666667 426.666667 0L725.333333 128l29.184 0L896 269.568 896 896zM298.666667 640l426.666667 0 0 42.666667-426.666667 0 0-42.666667ZM298.666667 768l426.666667 0 0 42.666667-426.666667 0 0-42.666667ZM554.666667 170.666667l42.666667 0 0 170.666667-42.666667 0 0-170.666667Z" fill="#272636"></path></g></g></svg>