<?xml version="1.0" standalone="no"?><!DOCTYPE svg PUBLIC "-//W3C//DTD SVG 1.1//EN" "http://www.w3.org/Graphics/SVG/1.1/DTD/svg11.dtd"><svg width="200" height="200" viewBox="0 0 200 200" version="1.1" xmlns="http://www.w3.org/2000/svg" xmlns:xlink="http://www.w3.org/1999/xlink"><defs><style type="text/css"><![CDATA[
@font-face { font-family: ifont; src: url("//at.alicdn.com/t/font_1442373896_4754455.eot?#iefix") format("embedded-opentype"), url("//at.alicdn.com/t/font_1442373896_4754455.woff") format("woff"), url("//at.alicdn.com/t/font_1442373896_4754455.ttf") format("truetype"), url("//at.alicdn.com/t/font_1442373896_4754455.svg#ifont") format("svg"); }

]]></style></defs><g class="transform-group"><g transform="scale(0.1953125, 0.1953125)"><path d="M354.88 997.952c-3.264 0-8.064 0-11.264-1.536-59.264-20.8-113.728-51.328-163.392-94.592-9.664-8-14.4-22.464-11.264-35.264 11.264-46.528 3.264-97.728-22.4-140.992-25.664-43.264-65.664-75.392-113.728-91.392C20.032 629.376 10.368 619.84 8.768 606.912c-6.4-35.264-8-64.064-8-94.592 0-28.8 3.136-59.264 8-94.528 1.6-12.8 11.264-24.064 24.064-27.264 49.664-16 88.064-48.064 113.728-91.328 25.664-44.928 33.664-94.592 22.4-142.656-3.136-12.8 1.6-25.664 11.264-35.264C229.888 78.08 284.416 46.016 343.68 26.752 356.48 23.616 369.344 25.28 378.88 34.816 415.872 68.544 463.936 87.68 513.6 87.68c49.664 0 97.664-19.136 134.528-52.864 9.6-8.064 22.528-11.264 35.264-8.064 59.264 20.8 113.728 51.328 163.52 94.592 9.6 8.064 14.4 22.464 11.264 35.264-11.264 49.664-3.264 97.728 22.528 142.656 25.472 43.264 65.6 75.328 112 89.728 12.864 3.136 22.528 14.4 24.128 27.136 6.4 35.328 8 64.128 8 94.592 0 28.8-3.136 59.328-8 94.592-1.6 12.736-11.264 24-24.128 27.264-49.6 16-88 48-113.728 91.328-25.6 44.864-33.6 94.528-22.4 142.656 3.136 12.8-1.6 25.6-11.264 35.264-46.528 40.064-100.864 72.064-163.392 94.592-12.864 4.8-27.264 1.536-36.864-6.464-36.864-33.6-84.992-52.864-134.656-52.864-49.664 0-97.728 19.264-134.592 52.864C372.48 994.816 362.88 997.952 354.88 997.952zM241.152 860.096c33.6 25.664 68.864 46.528 107.328 62.528 48.064-36.8 105.728-57.664 165.12-57.664 59.264 0 118.528 20.864 165.056 57.664 40-16 75.264-36.8 107.392-62.528-8-59.264 3.136-118.592 33.6-171.52 28.864-52.8 75.264-92.928 131.392-115.328 3.264-22.464 4.864-43.264 4.864-62.528s-1.6-40.064-4.864-62.528c-54.4-22.464-100.864-62.528-131.392-113.728-30.528-52.928-41.6-112.192-33.6-171.52-33.6-25.664-68.864-46.464-107.392-62.528-48 36.8-105.728 57.728-165.056 57.728-59.328 0-118.592-20.928-165.12-57.728C310.016 114.944 274.752 135.808 241.152 163.008 249.088 222.336 237.888 281.6 207.488 334.528 178.688 387.328 132.16 427.456 76.096 449.856 72.832 472.32 71.232 493.12 71.232 512.32s1.6 40.064 4.864 62.528c56.064 22.464 102.592 64.192 131.392 115.456C237.888 743.104 249.088 802.432 241.152 860.096zM513.6 693.44c-97.728 0-177.92-80.064-177.92-177.856 0-97.728 80.192-177.92 177.92-177.92 97.664 0 177.792 80.128 177.792 177.92 0 16-1.472 30.4-6.4 44.864-4.736 19.264-25.6 28.864-43.264 24.128C622.528 579.712 612.864 558.848 617.728 541.184c1.6-8 3.136-16 3.136-25.6 0-59.328-48-107.392-107.264-107.392-59.328 0-107.456 48.064-107.456 107.392 0 59.264 48.064 107.328 107.456 107.328 9.536 0 19.136-1.536 27.136-3.136C560 614.912 579.264 624.576 584.128 643.84c4.736 19.264-4.864 38.528-24.128 43.264C545.6 691.904 529.6 693.44 513.6 693.44z" fill="#272636"></path></g></g></svg>