<?xml version="1.0" encoding="iso-8859-1"?>
<!-- Generator: Adobe Illustrator 16.0.0, SVG Export Plug-In . SVG Version: 6.00 Build 0)  -->
<!DOCTYPE svg PUBLIC "-//W3C//DTD SVG 1.1//EN" "http://www.w3.org/Graphics/SVG/1.1/DTD/svg11.dtd">
<svg version="1.1" id="Layer_1" xmlns="http://www.w3.org/2000/svg" xmlns:xlink="http://www.w3.org/1999/xlink" x="0px" y="0px"
	 width="27.177px" height="27.206px" viewBox="0 0 27.177 27.206" style="enable-background:new 0 0 27.177 27.206;"
	 xml:space="preserve">
<g>
	<path d="M17.016,26.05L1.154,26.017V1.153h11.104v5.214h4.759v5.472l1.154-1.154v-6L13.469,0H0v27.167l18.17,0.039v-6.365
		l-1.154,1.153V26.05z M13.411,1.571l3.605,3.593v0.049h-3.605V1.571z"/>
	<path d="M1.988,12.793h1.359l0.198-0.627H4.94l0.185,0.627h1.402L4.928,8.4H3.605L1.988,12.793z M4.263,9.871h0.013l0.394,1.354
		H3.839L4.263,9.871z"/>
	<path d="M10.912,10.031c0.098-0.131,0.147-0.307,0.147-0.528c0-0.112-0.018-0.231-0.055-0.36c-0.037-0.13-0.107-0.25-0.212-0.361
		c-0.105-0.11-0.249-0.202-0.431-0.273C10.179,8.437,9.944,8.4,9.657,8.4H7.251v4.393h2.493c0.192,0,0.38-0.029,0.566-0.086
		c0.184-0.057,0.348-0.142,0.492-0.252c0.143-0.111,0.259-0.249,0.348-0.415c0.088-0.167,0.132-0.36,0.132-0.582
		c0-0.16-0.021-0.302-0.064-0.424c-0.043-0.123-0.1-0.229-0.169-0.316c-0.07-0.088-0.151-0.161-0.243-0.219
		s-0.188-0.102-0.286-0.135C10.682,10.273,10.813,10.162,10.912,10.031z M8.604,9.446h0.714c0.14,0,0.251,0.022,0.335,0.067
		C9.738,9.56,9.78,9.637,9.78,9.748c0,0.143-0.042,0.24-0.124,0.29c-0.082,0.049-0.194,0.073-0.338,0.073H8.604V9.446z
		 M9.884,11.538c-0.029,0.054-0.068,0.096-0.117,0.126c-0.049,0.032-0.105,0.053-0.169,0.065c-0.063,0.013-0.13,0.019-0.199,0.019
		H8.604v-0.818h0.849c0.315,0,0.474,0.133,0.474,0.399C9.928,11.415,9.913,11.484,9.884,11.538z"/>
	<path d="M13.485,9.772c0.064-0.115,0.148-0.207,0.255-0.276c0.106-0.07,0.239-0.105,0.4-0.105c0.139,0,0.253,0.027,0.341,0.08
		c0.088,0.054,0.159,0.115,0.212,0.186c0.053,0.069,0.09,0.14,0.111,0.212c0.019,0.07,0.034,0.127,0.042,0.169h1.317
		c-0.058-0.554-0.251-0.982-0.582-1.283c-0.33-0.302-0.798-0.454-1.405-0.458c-0.341,0-0.647,0.056-0.92,0.167
		s-0.506,0.267-0.701,0.468s-0.344,0.443-0.449,0.726c-0.104,0.282-0.157,0.596-0.157,0.941c0,0.323,0.049,0.627,0.147,0.908
		c0.099,0.28,0.243,0.523,0.434,0.729c0.191,0.205,0.423,0.366,0.698,0.485c0.274,0.12,0.59,0.179,0.947,0.179
		c0.32,0,0.605-0.054,0.855-0.16c0.25-0.107,0.46-0.247,0.63-0.421c0.171-0.174,0.3-0.371,0.388-0.588
		c0.087-0.217,0.132-0.436,0.132-0.658h-1.329c-0.021,0.103-0.048,0.2-0.083,0.29c-0.034,0.09-0.08,0.168-0.134,0.234
		c-0.056,0.066-0.124,0.117-0.203,0.153c-0.081,0.037-0.178,0.056-0.292,0.056c-0.161,0-0.293-0.036-0.4-0.105
		c-0.107-0.069-0.191-0.162-0.255-0.276c-0.063-0.115-0.109-0.245-0.138-0.388c-0.03-0.144-0.044-0.289-0.044-0.437
		c0-0.148,0.014-0.294,0.044-0.437C13.375,10.016,13.421,9.887,13.485,9.772z"/>
	<path d="M23.81,6.737l-2.773,2.865l0.004,0.005l-8.59,8.875l-2.271,5.408l5.551-2.103l8.669-8.93l0.005,0.007l2.772-2.866
		L23.81,6.737z M15.532,21.395l-3.169,1.198l-0.835-0.805l1.265-3.032l0.391-0.405l-0.076,1.779l1.232-0.319l-0.211,1.307
		l1.685-0.015L15.532,21.395z M22.804,9.032l1.026-1.06l2.113,2.046l-1.025,1.06L22.804,9.032z"/>
</g>
<g>
</g>
<g>
</g>
<g>
</g>
<g>
</g>
<g>
</g>
<g>
</g>
<g>
</g>
<g>
</g>
<g>
</g>
<g>
</g>
<g>
</g>
<g>
</g>
<g>
</g>
<g>
</g>
<g>
</g>
</svg>
