<?xml version="1.0" standalone="no"?><!DOCTYPE svg PUBLIC "-//W3C//DTD SVG 1.1//EN" "http://www.w3.org/Graphics/SVG/1.1/DTD/svg11.dtd"><svg width="200" height="200" viewBox="0 0 200 200" version="1.1" xmlns="http://www.w3.org/2000/svg" xmlns:xlink="http://www.w3.org/1999/xlink"><defs><style type="text/css"><![CDATA[
@font-face { font-family: ifont; src: url("//at.alicdn.com/t/font_1442373896_4754455.eot?#iefix") format("embedded-opentype"), url("//at.alicdn.com/t/font_1442373896_4754455.woff") format("woff"), url("//at.alicdn.com/t/font_1442373896_4754455.ttf") format("truetype"), url("//at.alicdn.com/t/font_1442373896_4754455.svg#ifont") format("svg"); }

]]></style></defs><g class="transform-group"><g transform="scale(0.1953125, 0.1953125)"><path d="M865.094874 428.640454 591.335906 428.640454 591.335906 154.880463c0-15.134699-12.241812-27.374464-27.376511-27.374464L454.455399 127.505999c-15.130605 0-27.375487 12.239765-27.375487 27.374464l0 273.759991L153.319921 428.640454c-15.130605 0-27.375487 12.243859-27.375487 27.374464l0 109.502973c0 15.136745 12.243859 27.381627 27.375487 27.381627L427.080935 592.899518l0 273.750781c0 15.136745 12.243859 27.383674 27.375487 27.383674l109.502973 0c15.134699 0 27.376511-12.245905 27.376511-27.383674L591.335906 592.899518l273.758967 0c15.135722 0 27.376511-12.243859 27.376511-27.381627L892.471384 456.014918C892.471384 440.884312 880.230596 428.640454 865.094874 428.640454z" fill="#272636"></path></g></g></svg>