<?xml version="1.0" standalone="no"?><!DOCTYPE svg PUBLIC "-//W3C//DTD SVG 1.1//EN" "http://www.w3.org/Graphics/SVG/1.1/DTD/svg11.dtd"><svg width="200" height="200" viewBox="0 0 200 200" version="1.1" xmlns="http://www.w3.org/2000/svg" xmlns:xlink="http://www.w3.org/1999/xlink"><defs><style type="text/css"><![CDATA[
@font-face { font-family: ifont; src: url("//at.alicdn.com/t/font_1442373896_4754455.eot?#iefix") format("embedded-opentype"), url("//at.alicdn.com/t/font_1442373896_4754455.woff") format("woff"), url("//at.alicdn.com/t/font_1442373896_4754455.ttf") format("truetype"), url("//at.alicdn.com/t/font_1442373896_4754455.svg#ifont") format("svg"); }

]]></style></defs><g class="transform-group"><g transform="scale(0.1953125, 0.1953125)"><path d="M311.652174 182.53913 422.956522 244.869565 360.626087 133.565217 422.956522 22.26087 311.652174 84.591304 200.347826 22.26087 262.678261 133.565217 200.347826 244.869565 311.652174 182.53913ZM845.913043 618.852174 734.608696 556.521739 796.93913 667.826087 734.608696 779.130435 845.913043 716.8 957.217391 779.130435 894.886957 667.826087 957.217391 556.521739 845.913043 618.852174ZM957.217391 22.26087 845.913043 84.591304 734.608696 22.26087 796.93913 133.565217 734.608696 244.869565 845.913043 182.53913 957.217391 244.869565 894.886957 133.565217 957.217391 22.26087ZM618.852174 258.226087C601.043478 240.417391 574.330435 240.417391 556.521739 258.226087L35.617391 779.130435C17.808696 796.93913 17.808696 823.652174 35.617391 841.46087L138.017391 943.86087C155.826087 961.669565 182.53913 961.669565 200.347826 943.86087L721.252174 422.956522C739.06087 405.147826 739.06087 378.434783 721.252174 360.626087L618.852174 258.226087 618.852174 258.226087ZM569.878261 503.095652 476.382609 409.6 583.234783 302.747826 676.730435 396.243478 569.878261 503.095652 569.878261 503.095652Z" fill="#000000"></path></g></g></svg>