<?xml version="1.0" standalone="no"?><!DOCTYPE svg PUBLIC "-//W3C//DTD SVG 1.1//EN" "http://www.w3.org/Graphics/SVG/1.1/DTD/svg11.dtd"><svg width="200" height="200" viewBox="0 0 200 200" version="1.1" xmlns="http://www.w3.org/2000/svg" xmlns:xlink="http://www.w3.org/1999/xlink"><defs><style type="text/css"><![CDATA[
@font-face { font-family: ifont; src: url("//at.alicdn.com/t/font_1442373896_4754455.eot?#iefix") format("embedded-opentype"), url("//at.alicdn.com/t/font_1442373896_4754455.woff") format("woff"), url("//at.alicdn.com/t/font_1442373896_4754455.ttf") format("truetype"), url("//at.alicdn.com/t/font_1442373896_4754455.svg#ifont") format("svg"); }

]]></style></defs><g class="transform-group"><g transform="scale(0.1953125, 0.1953125)"><path d="M801.71008 986.0096c-4.082347 17.12128-21.210453 27.531947-37.608107 23.4496-17.12128-4.11648-27.572907-21.23776-23.4496-38.741333l37.983573-153.033387L778.635947 497.773227c0-13.038933-6.32832-21.23776-14.527147-24.59648-4.082347-1.488213-8.198827-2.21184-13.038933-2.21184-4.082347 0-8.54016 0.723627-12.274347 2.21184-8.587947 3.35872-14.916267 10.83392-15.250773 23.49056l0 0.341333 0 0.764587 0 35.007147c0 17.503573-13.810347 31.648427-30.931627 31.648427-17.87904 0-32.413013-14.144853-32.413013-31.648427 0-27.190613 0-54.76352 0-82.295467 0-13.038933-6.32832-21.23776-14.493013-24.978773-4.11648-1.488213-8.198827-2.21184-13.038933-2.21184-4.11648 0-8.963413 0.723627-12.281173 2.21184-8.192 3.741013-14.527147 11.175253-15.291733 23.49056l0 1.488213 0 82.295467c0 17.503573-14.144853 31.648427-30.890667 31.648427-17.885867 0-32.03072-14.144853-32.03072-31.648427 0-31.307093 0-62.962347 0-94.610773 0-13.769387-6.710613-21.968213-15.291733-24.937813-3.35872-1.10592-8.157867-1.870507-12.281173-1.870507-4.46464 0-8.922453 0.764587-12.663467 1.870507-8.198827 2.976427-14.144853 11.175253-14.90944 23.4496l0 0.764587 0 0.723627 0 94.610773c0 17.503573-14.493013 31.648427-31.648427 31.648427-17.503573 0-30.890667-14.144853-30.890667-31.648427 0-101.669547 0-202.60864 0-304.61952 0-12.6976-7.43424-21.23776-16.01536-25.361067-3.351893-1.10592-8.198827-1.829547-12.281173-1.829547-4.11648 0-8.963413 0.723627-12.663467 1.829547-8.58112 4.123307-14.90944 12.663467-14.90944 25.361067 0 167.942827 0 335.885653 0 504.2176 0 17.12128-14.144853 30.9248-31.648427 30.9248-17.12128 0-30.9248-13.80352-30.9248-30.9248L306.046293 594.978133l0-0.764587 0-0.723627c-1.10592-12.315307-7.43424-20.13184-15.633067-24.214187-4.082347-0.764587-8.198827-1.488213-12.65664-1.488213-4.46464 0-8.546987 0.723627-12.281173 1.488213-8.58112 4.082347-15.250773 12.663467-15.250773 25.7024l0 157.149867c0 62.19776 2.21184 64.791893 34.24256 106.850987l9.311573 10.827093 68.901547 89.729707c10.0352 14.144853 8.198827 33.518933-5.98016 44.311893-13.387093 10.4448-33.4848 7.4752-44.31872-6.335147l-68.143787-89.347413-8.922453-11.557547c-44.694187-56.97536-48.052907-61.09184-48.052907-144.493227l0-157.149867c0-43.588267 24.214187-71.161173 54.76352-83.43552 11.89888-4.840107 23.831893-6.710613 35.7376-6.710613 9.29792 0 18.602667 1.14688 28.289707 4.123307L306.05312 228.160853c0-43.205973 23.49056-71.161173 54.381227-83.060053 11.933013-4.846933 23.831893-6.710613 35.771733-6.710613 11.89888 0 24.180053 1.86368 35.730773 6.710613 30.9248 11.89888 55.104853 39.847253 55.104853 83.060053l0 123.630933c8.963413-2.2528 18.650453-3.734187 27.572907-3.734187 11.933013 0 24.59648 1.870507 35.771733 6.710613 11.516587 4.840107 21.968213 11.89888 30.890667 20.862293 4.840107-3.734187 10.069333-6.32832 15.633067-8.198827 11.175253-4.846933 24.214187-7.092907 35.771733-7.092907 11.89888 0 24.937813 2.245973 36.113067 7.092907 20.862293 8.198827 38.74816 24.55552 48.428373 46.564693 10.410667-4.123307 22.350507-6.32832 33.860267-6.32832 12.315307 0 24.214187 2.9696 35.771733 7.051947 30.890667 12.281173 55.48032 40.61184 55.48032 83.060053l0 323.9936c0 2.245973-1.10592 4.840107-1.870507 6.710613L801.71008 986.0096 801.71008 986.0096zM252.416 274.302293 252.416 274.302293c4.840107 16.779947-4.46464 34.665813-20.862293 39.847253-16.738987 4.846933-34.24256-4.07552-39.471787-20.473173-6.32832-21.203627-10.410667-43.205973-10.410667-65.51552C181.67808 110.475947 278.50752 13.653333 396.1856 13.653333c117.684907 0 214.50752 96.822613 214.50752 214.50752 0 22.309547-4.11648 44.311893-10.451627 65.51552-5.2224 16.397653-22.34368 25.320107-39.471787 20.473173-16.738987-5.18144-25.7024-23.067307-20.097707-39.847253 4.46464-14.875307 7.441067-30.16704 7.441067-46.14144 0-83.060053-68.532907-151.586133-151.934293-151.586133-83.060053 0-151.20384 68.532907-151.20384 151.586133C244.98176 244.14208 247.1936 259.433813 252.416 274.302293L252.416 274.302293z" fill="#56abe4"></path></g></g></svg>