<?xml version="1.0" standalone="no"?><!DOCTYPE svg PUBLIC "-//W3C//DTD SVG 1.1//EN" "http://www.w3.org/Graphics/SVG/1.1/DTD/svg11.dtd"><svg class="icon" width="200px" height="200.00px" viewBox="0 0 1024 1024" version="1.1" xmlns="http://www.w3.org/2000/svg"><path d="M339.670631 313.078485l0 495.801063 49.580209 0L389.25084 313.078485 339.670631 313.078485zM785.890462 858.458733 240.510214 858.458733l0-594.960457-99.161441 0 0 694.120874L885.05088 957.61915 885.05088 263.499299l-99.159394 0L785.891486 858.458733zM637.15086 114.758674 637.15086 65.179488 389.249817 65.179488l0 49.580209L91.768565 114.759697l0 99.160417L934.630065 213.920114 934.630065 114.758674 637.15086 114.758674zM488.410234 313.078485l0 495.801063 49.579185 0L537.989419 313.078485 488.410234 313.078485zM637.15086 313.078485l0 495.801063 49.579185 0L686.730045 313.078485 637.15086 313.078485z"  /></svg>