<?xml version="1.0" standalone="no"?><!DOCTYPE svg PUBLIC "-//W3C//DTD SVG 1.1//EN" "http://www.w3.org/Graphics/SVG/1.1/DTD/svg11.dtd"><svg width="200" height="200" viewBox="0 0 200 200" version="1.1" xmlns="http://www.w3.org/2000/svg" xmlns:xlink="http://www.w3.org/1999/xlink"><defs><style type="text/css"><![CDATA[
@font-face { font-family: ifont; src: url("//at.alicdn.com/t/font_1442373896_4754455.eot?#iefix") format("embedded-opentype"), url("//at.alicdn.com/t/font_1442373896_4754455.woff") format("woff"), url("//at.alicdn.com/t/font_1442373896_4754455.ttf") format("truetype"), url("//at.alicdn.com/t/font_1442373896_4754455.svg#ifont") format("svg"); }

]]></style></defs><g class="transform-group"><g transform="scale(0.1953125, 0.1953125)"><path d="M512 1024C229.239467 1024 0 794.760533 0 512 0 229.239467 229.239467 0 512 0 794.760533 0 1024 229.239467 1024 512 1024 794.760533 794.760533 1024 512 1024L512 1024ZM512 45.511111C254.3616 45.511111 45.511111 254.3616 45.511111 512 45.511111 769.6384 254.3616 978.488889 512 978.488889 769.6384 978.488889 978.488889 769.6384 978.488889 512 978.488889 254.3616 769.6384 45.511111 512 45.511111L512 45.511111ZM273.066667 477.866667 773.688889 477.866667 773.688889 523.377778 273.066667 523.377778 273.066667 477.866667Z" fill="#56abe4"></path></g></g></svg>