<?xml version="1.0" standalone="no"?><!DOCTYPE svg PUBLIC "-//W3C//DTD SVG 1.1//EN" "http://www.w3.org/Graphics/SVG/1.1/DTD/svg11.dtd"><svg width="200.78125" height="200" viewBox="0 0 200.78125 200" version="1.1" xmlns="http://www.w3.org/2000/svg" xmlns:xlink="http://www.w3.org/1999/xlink"><defs><style type="text/css"><![CDATA[
@font-face { font-family: ifont; src: url("//at.alicdn.com/t/font_1442373896_4754455.eot?#iefix") format("embedded-opentype"), url("//at.alicdn.com/t/font_1442373896_4754455.woff") format("woff"), url("//at.alicdn.com/t/font_1442373896_4754455.ttf") format("truetype"), url("//at.alicdn.com/t/font_1442373896_4754455.svg#ifont") format("svg"); }

]]></style></defs><g class="transform-group"><g transform="scale(0.1953125, 0.1953125)"><path d="M0 1007.328c0 8.832 7.168 16 16 16l995.552 0c2.144 0 4.224-0.416 6.176-1.248 1.952-0.832 3.712-2.016 5.184-3.488 0.032-0.032 0.064-0.032 0.096-0.064 0.096-0.096 0.096-0.288 0.224-0.384 1.632-1.76 2.688-3.904 3.424-6.24 0.224-0.736 0.32-1.44 0.448-2.208 0.128-0.8 0.48-1.504 0.48-2.336 0-1.28-0.448-2.4-0.736-3.584-0.096-0.448 0.096-0.896-0.064-1.344l-101.12-310.88c-0.768-2.4-2.112-4.608-3.904-6.368L374.016 137.408c-0.576-0.896-0.992-1.856-1.76-2.656L252.608 15.104c-19.424-19.424-51.04-19.424-70.496 0L14.592 182.624C5.184 192.032 0 204.544 0 217.856s5.184 25.856 14.592 35.264l116.992 116.992c0.576 0.864 0.96 1.856 1.728 2.624l546.88 550.56c1.888 1.92 4.192 3.296 6.784 4.064l214.816 64L16 991.36C7.168 991.328 0 998.496 0 1007.328zM203.584 325.152l501.984 495.552-18.464 64.064L167.264 361.472 203.584 325.152zM730.112 800 226.176 302.56l77.984-77.984 499.424 500.736L803.584 800 730.112 800zM823.52 700 326.784 201.952l33.248-33.248 518.752 518.752L823.52 700zM735.616 832l83.968 0c8.832 0 16-7.168 16-16l0-85.92 64.224-14.592 87.136 267.84L715.328 902.4 735.616 832zM32 217.856C32 213.088 33.856 208.64 37.216 205.248l167.52-167.52c6.944-6.944 18.24-6.976 25.248 0l107.904 107.904-192.736 192.736L37.248 230.464C33.856 227.104 32 222.624 32 217.856z" fill="#56abe4"></path></g></g></svg>