<?xml version="1.0" standalone="no"?><!DOCTYPE svg PUBLIC "-//W3C//DTD SVG 1.1//EN" "http://www.w3.org/Graphics/SVG/1.1/DTD/svg11.dtd"><svg class="icon" width="200px" height="195.05px" viewBox="0 0 1050 1024" version="1.1" xmlns="http://www.w3.org/2000/svg"><path fill="#515151" d="M488.618 256.192v322.18l168.718 153.462 55.469-62.402-140.982-128.039v-285.199z"  /><path fill="#515151" d="M542.699 47.725c-190.441 0-354.998 115.097-428.030 279.19l-94.758-35.591 62.402 232.042 199.223-132.661-88.749-33.744c61.477-132.661 195.062-225.109 349.914-225.109 212.629 0 385.967 174.263 385.967 387.817 0 214.015-173.34 387.817-385.967 387.817-4.161 0-8.319 0-12.481-0.462v83.665c4.161 0 8.319 0 12.481 0 258.851 0 469.168-211.702 469.168-471.482s-210.779-471.482-469.168-471.482z"  /></svg>