<?xml version="1.0" standalone="no"?><!DOCTYPE svg PUBLIC "-//W3C//DTD SVG 1.1//EN" "http://www.w3.org/Graphics/SVG/1.1/DTD/svg11.dtd"><svg width="200.1953125" height="200" viewBox="0 0 200.1953125 200" version="1.1" xmlns="http://www.w3.org/2000/svg" xmlns:xlink="http://www.w3.org/1999/xlink"><defs><style type="text/css"><![CDATA[
@font-face { font-family: ifont; src: url("//at.alicdn.com/t/font_1442373896_4754455.eot?#iefix") format("embedded-opentype"), url("//at.alicdn.com/t/font_1442373896_4754455.woff") format("woff"), url("//at.alicdn.com/t/font_1442373896_4754455.ttf") format("truetype"), url("//at.alicdn.com/t/font_1442373896_4754455.svg#ifont") format("svg"); }

]]></style></defs><g class="transform-group"><g transform="scale(0.1953125, 0.1953125)"><path d="M870.434133 580.266667C860.996267 580.266667 853.367467 587.912533 853.367467 597.333333L853.367467 733.866667C853.367467 762.094933 830.395733 785.066667 802.167467 785.066667L221.9008 785.066667C193.672533 785.066667 170.7008 762.094933 170.7008 733.866667L170.7008 597.333333C170.7008 587.912533 163.072 580.266667 153.634133 580.266667 144.196267 580.266667 136.567467 587.912533 136.567467 597.333333L136.567467 733.866667C136.567467 780.919467 174.848 819.2 221.9008 819.2L802.167467 819.2C849.220267 819.2 887.5008 780.919467 887.5008 733.866667L887.5008 597.333333C887.5008 587.912533 879.872 580.266667 870.434133 580.266667M972.834133 477.866667C950.613333 477.866667 931.857067 492.168533 924.791467 512L887.5008 512 887.5008 358.4C887.5008 311.3472 849.220267 273.066667 802.167467 273.066667L426.7008 273.066667C417.262933 273.066667 409.634133 280.712533 409.634133 290.133333 409.634133 299.554133 417.262933 307.2 426.7008 307.2L802.167467 307.2C830.395733 307.2 853.367467 330.171733 853.367467 358.4L853.367467 529.066667C853.367467 538.487467 860.996267 546.133333 870.434133 546.133333L924.791467 546.133333C931.857067 565.9648 950.613333 580.266667 972.834133 580.266667 1001.0624 580.266667 1024.034133 557.294933 1024.034133 529.066667 1024.034133 500.8384 1001.0624 477.866667 972.834133 477.866667L972.834133 477.866667ZM972.834133 546.133333C963.413333 546.133333 955.767467 538.4704 955.767467 529.066667 955.767467 519.662933 963.413333 512 972.834133 512 982.254933 512 989.9008 519.662933 989.9008 529.066667 989.9008 538.4704 982.254933 546.133333 972.834133 546.133333L972.834133 546.133333ZM375.5008 460.8C375.5008 432.571733 352.529067 409.6 324.3008 409.6 296.072533 409.6 273.1008 432.571733 273.1008 460.8 273.1008 489.028267 296.072533 512 324.3008 512 352.529067 512 375.5008 489.028267 375.5008 460.8L375.5008 460.8ZM324.3008 477.866667C314.88 477.866667 307.234133 470.203733 307.234133 460.8 307.234133 451.396267 314.88 443.733333 324.3008 443.733333 333.7216 443.733333 341.367467 451.396267 341.367467 460.8 341.367467 470.203733 333.7216 477.866667 324.3008 477.866667L324.3008 477.866667ZM750.967467 460.8C750.967467 432.571733 727.995733 409.6 699.767467 409.6 671.5392 409.6 648.567467 432.571733 648.567467 460.8 648.567467 489.028267 671.5392 512 699.767467 512 727.995733 512 750.967467 489.028267 750.967467 460.8L750.967467 460.8ZM682.7008 460.8C682.7008 451.396267 690.346667 443.733333 699.767467 443.733333 709.188267 443.733333 716.834133 451.396267 716.834133 460.8 716.834133 470.203733 709.188267 477.866667 699.767467 477.866667 690.346667 477.866667 682.7008 470.203733 682.7008 460.8L682.7008 460.8ZM665.634133 853.333333 358.434133 853.333333C348.996267 853.333333 341.367467 860.9792 341.367467 870.4 341.367467 879.8208 348.996267 887.466667 358.434133 887.466667L665.634133 887.466667C675.072 887.466667 682.7008 879.8208 682.7008 870.4 682.7008 860.9792 675.072 853.333333 665.634133 853.333333M631.5008 921.6 392.567467 921.6C383.1296 921.6 375.5008 929.245867 375.5008 938.666667 375.5008 948.087467 383.1296 955.733333 392.567467 955.733333L631.5008 955.733333C640.938667 955.733333 648.567467 948.087467 648.567467 938.666667 648.567467 929.245867 640.938667 921.6 631.5008 921.6M631.5008 989.866667 392.567467 989.866667C383.1296 989.866667 375.5008 997.512533 375.5008 1006.933333 375.5008 1016.354133 383.1296 1024 392.567467 1024L631.5008 1024C640.938667 1024 648.567467 1016.354133 648.567467 1006.933333 648.567467 997.512533 640.938667 989.866667 631.5008 989.866667M358.434133 614.4C348.996267 614.4 341.367467 622.045867 341.367467 631.466667L341.367467 699.733333C341.367467 709.154133 348.996267 716.8 358.434133 716.8L665.634133 716.8C675.072 716.8 682.7008 709.154133 682.7008 699.733333L682.7008 631.466667C682.7008 622.045867 675.072 614.4 665.634133 614.4L358.434133 614.4 358.434133 614.4ZM477.9008 648.533333 546.167467 648.533333 546.167467 682.666667 477.9008 682.666667 477.9008 648.533333ZM375.5008 648.533333 443.767467 648.533333 443.767467 682.666667 375.5008 682.666667 375.5008 648.533333ZM580.3008 648.533333 648.567467 648.533333 648.567467 682.666667 580.3008 682.666667 580.3008 648.533333ZM153.634133 546.133333C163.072 546.133333 170.7008 538.487467 170.7008 529.066667L170.7008 358.4C170.7008 330.171733 193.672533 307.2 221.9008 307.2L358.434133 307.2C367.872 307.2 375.5008 299.554133 375.5008 290.133333 375.5008 222.856533 448.904533 170.666667 512.034133 170.666667 556.4416 170.666667 603.460267 195.191467 629.077333 231.697067 634.487467 239.394133 645.12 241.288533 652.8512 235.8784 660.565333 230.4512 662.442667 219.818667 657.015467 212.104533 628.104533 170.871467 579.242667 142.9504 529.1008 137.642667L529.1008 99.259733C548.9152 92.177067 563.234133 73.4208 563.234133 51.2 563.234133 22.971733 540.2624 0 512.034133 0 483.805867 0 460.834133 22.971733 460.834133 51.2 460.834133 73.4208 475.153067 92.177067 494.967467 99.242667L494.967467 137.591467C424.635733 145.373867 352.4096 199.799467 342.510933 273.066667L221.9008 273.066667C174.848 273.066667 136.567467 311.3472 136.567467 358.4L136.533333 512 99.259733 512C92.177067 492.168533 73.4208 477.866667 51.2 477.866667 22.971733 477.866667 0 500.8384 0 529.066667 0 557.294933 22.971733 580.266667 51.2 580.266667 73.4208 580.266667 92.177067 565.9648 99.259733 546.133333L153.634133 546.133333 153.634133 546.133333ZM512.034133 34.133333C521.454933 34.133333 529.1008 41.796267 529.1008 51.2 529.1008 60.603733 521.454933 68.266667 512.034133 68.266667 502.613333 68.266667 494.967467 60.603733 494.967467 51.2 494.967467 41.796267 502.613333 34.133333 512.034133 34.133333L512.034133 34.133333ZM51.2 546.133333C41.7792 546.133333 34.133333 538.4704 34.133333 529.066667 34.133333 519.662933 41.7792 512 51.2 512 60.6208 512 68.266667 519.662933 68.266667 529.066667 68.266667 538.4704 60.6208 546.133333 51.2 546.133333L51.2 546.133333Z" fill="#56abe4"></path></g></g></svg>