<?xml version="1.0" standalone="no"?><!DOCTYPE svg PUBLIC "-//W3C//DTD SVG 1.1//EN" "http://www.w3.org/Graphics/SVG/1.1/DTD/svg11.dtd"><svg width="200" height="200" viewBox="0 0 200 200" version="1.1" xmlns="http://www.w3.org/2000/svg" xmlns:xlink="http://www.w3.org/1999/xlink"><defs><style type="text/css"><![CDATA[
@font-face { font-family: ifont; src: url("//at.alicdn.com/t/font_1442373896_4754455.eot?#iefix") format("embedded-opentype"), url("//at.alicdn.com/t/font_1442373896_4754455.woff") format("woff"), url("//at.alicdn.com/t/font_1442373896_4754455.ttf") format("truetype"), url("//at.alicdn.com/t/font_1442373896_4754455.svg#ifont") format("svg"); }

]]></style></defs><g class="transform-group"><g transform="scale(0.1953125, 0.1953125)"><path d="M953.043948 238.449787 782.629697 68.034513c-4.223185-4.223185-9.956769-6.599302-15.925714-6.599302l-66.268286 0L321.318146 61.435211 122.322953 61.435211c-32.584116 0-59.096956 26.51284-59.096956 59.112306l0 778.207991c0 32.598442 26.51284 59.112306 59.096956 59.112306l127.095653 0L790.078343 957.867814l110.466927 0c32.584116 0 59.096956-26.51284 59.096956-59.112306L959.642227 254.374478C959.642227 248.406556 957.267133 242.672972 953.043948 238.449787zM677.911704 106.485243 677.911704 306.125119c0 0.776689-0.645706 1.422396-1.408069 1.422396l-62.733786 0L613.769848 106.485243 677.911704 106.485243zM568.720839 106.485243 568.720839 307.547515l-223.469608 0c-0.762363 0-1.408069-0.645706-1.408069-1.422396L343.843162 106.485243 568.720839 106.485243zM271.943622 912.818805 271.943622 633.756041c0-52.454676 42.688241-95.141894 95.141894-95.141894l305.311591 0c52.469002 0 95.157243 42.688241 95.157243 95.141894l0 279.062763L271.943622 912.818805zM914.594241 898.755508c0 7.757684-6.305613 14.063297-14.047947 14.063297l-87.941911 0L812.604382 633.756041c0-77.295434-62.895469-140.190903-140.206252-140.190903L367.085516 493.565139c-77.295434 0-140.190903 62.895469-140.190903 140.190903l0 279.062763-104.57166 0c-7.742335 0-14.047947-6.305613-14.047947-14.063297L108.275006 120.547517c0-7.757684 6.305613-14.063297 14.047947-14.063297l176.471201 0L298.794154 306.125119c0 25.618471 20.837584 46.471404 46.457078 46.471404l331.252403 0c25.618471 0 46.457078-20.852934 46.457078-46.471404L722.960713 106.485243l34.416857 0L914.594241 263.700891 914.594241 898.755508zM661.09162 758.168586 382.835222 758.168586c-12.435217 0-22.523993 10.088776-22.523993 22.523993 0 12.435217 10.088776 22.523993 22.523993 22.523993l278.256398 0c12.435217 0 22.523993-10.088776 22.523993-22.523993C683.615613 768.257362 673.526837 758.168586 661.09162 758.168586zM661.09162 640.105656 382.835222 640.105656c-12.435217 0-22.523993 10.088776-22.523993 22.523993 0 12.435217 10.088776 22.523993 22.523993 22.523993l278.256398 0c12.435217 0 22.523993-10.088776 22.523993-22.523993C683.615613 650.194432 673.526837 640.105656 661.09162 640.105656z" fill="#56abe4"></path></g></g></svg>