<?xml version="1.0" standalone="no"?><!DOCTYPE svg PUBLIC "-//W3C//DTD SVG 1.1//EN" "http://www.w3.org/Graphics/SVG/1.1/DTD/svg11.dtd"><svg class="icon" style="" viewBox="0 0 1024 1024" version="1.1" xmlns="http://www.w3.org/2000/svg" p-id="1095" xmlns:xlink="http://www.w3.org/1999/xlink" width="200" height="200"><defs><style type="text/css"><![CDATA[

]]></style></defs><path d="M381.647396 431.21565a16.938024 16.938024 0 0 0-23.935092 0 143.226569 143.226569 0 0 0 0.042665 202.360327 16.895359 16.895359 0 0 0 23.892427 0 17.023355 17.023355 0 0 0 0.042665-24.020423 109.222525 109.222525 0 0 1-0.042665-154.404812 16.852694 16.852694 0 0 0 0-23.935092z" fill="#1296db" p-id="1096"></path><path d="M971.107712 772.408046a30.804165 30.804165 0 0 0-43.518349 0.08533l-155.215449 155.215448a30.93216 30.93216 0 0 0-0.08533 43.561015 30.889495 30.889495 0 0 0 43.561015 0.08533l155.343444-155.258113a31.017491 31.017491 0 0 0-0.085331-43.68901zM1003.063834 827.403294l-175.822667 175.737337a71.634617 71.634617 0 0 0 98.428268 2.517238c22.569811 16.682034 54.227277 14.932767 74.663836-5.418461a57.299161 57.299161 0 0 0 5.461126-74.578506 71.634617 71.634617 0 0 0-2.730563-98.257608zM277.160691 277.109493a41.043777 41.043777 0 0 0 0-58.024467L209.621919 151.546254a40.958447 40.958447 0 0 0-58.024467 0 40.958447 40.958447 0 0 0 0.042665 58.024466l67.538773 67.538773a40.958447 40.958447 0 0 0 57.981801 0zM164.482297 498.327772a41.043777 41.043777 0 0 0-22.697806-69.586695l-94.247093-14.932767A41.086442 41.086442 0 0 0 34.567223 494.914568l94.332423 14.932767a41.043777 41.043777 0 0 0 35.582651-11.519563zM155.650632 677.904963l-85.116773 43.34769a40.958447 40.958447 0 0 0-17.91932 55.251238 41.043777 41.043777 0 0 0 55.165908 18.047316l85.116773-43.475685a40.958447 40.958447 0 0 0 17.961985-55.165909 41.043777 41.043777 0 0 0-55.208573-18.00465zM908.774076 386.374683l85.116773-43.43302a41.257102 41.257102 0 0 0 17.961985-55.208573 41.043777 41.043777 0 0 0-55.251238-17.876655l-85.159438 43.347689a41.257102 41.257102 0 0 0-17.91932 55.208574 41.171772 41.171772 0 0 0 55.251238 17.961985zM368.463896 853.514304a41.129107 41.129107 0 0 0-55.208573 17.876656L269.864968 956.550397a41.001112 41.001112 0 1 0 73.127894 37.289253L386.383217 908.765543a41.001112 41.001112 0 0 0-17.919321-55.251239zM696.003477 210.765342a41.043777 41.043777 0 0 0 55.165908-17.919321l43.390355-85.074107a41.086442 41.086442 0 0 0-73.085229-37.331918l-43.390355 85.116772a40.873117 40.873117 0 0 0 17.919321 55.208574zM475.851824 175.865332a40.958447 40.958447 0 0 0 34.089374-47.016884l-14.932767-94.375088a41.129107 41.129107 0 0 0-81.148923 12.970174l14.975432 94.289759a41.086442 41.086442 0 0 0 47.016884 34.132039zM859.538609 668.390657a1448.777067 1448.777067 0 0 1-32.169446-170.574866 294.943483 294.943483 0 0 0-84.434132-174.24406 296.60742 296.60742 0 0 0-419.397431 419.354766 294.218178 294.218178 0 0 0 174.201394 84.434132c55.848549 6.570418 113.14771 17.364675 167.673643 31.401476l69.672025 69.757355 192.33404-192.33404-67.880093-67.794763z m-477.848548-58.835103a17.023355 17.023355 0 0 1-0.042665 24.020423 16.895359 16.895359 0 0 1-23.892427 0 143.226569 143.226569 0 0 1-0.042665-202.360327 16.938024 16.938024 0 1 1 23.935092 23.935092 109.222525 109.222525 0 0 0 0.042665 154.404812z" fill="#1296db" p-id="1097"></path></svg>