<?xml version="1.0" standalone="no"?><!DOCTYPE svg PUBLIC "-//W3C//DTD SVG 1.1//EN" "http://www.w3.org/Graphics/SVG/1.1/DTD/svg11.dtd"><svg class="icon" width="200px" height="200.00px" viewBox="0 0 1024 1024" version="1.1" xmlns="http://www.w3.org/2000/svg"><path d="M842.295612 473.860355c3.370771-16.861016 5.3918-33.717939 5.3918-51.250244 0-130.819464-104.517425-237.363036-233.31586-237.363036-97.779977 0-180.718945 60.690244-215.783555 147.676387-19.558451-9.44-41.811268-14.8318-65.410756-14.8318-84.965114 0-153.748686 70.12922-153.748686 155.768693l0 0c-91.031273 7.417947-162.511257 85.640496-162.511257 180.719968 0 89.685625 64.061015 164.537404 148.350746 178.697915l0 2.696412 278.498922 0L443.766966 660.647505l-71.479985 0 138.91177-160.491251L650.785903 659.972123 578.632583 659.972123l0 175.327144 269.054829 0 0-1.350764c89.011266-10.113335 157.794839-86.98512 157.794839-180.043562C1006.152517 559.50085 934.002266 481.278301 842.295612 473.860355L842.295612 473.860355zM842.295612 473.860355" fill="#1296db" /></svg>